<svg xmlns="http://www.w3.org/2000/svg" xmlns:xlink="http://www.w3.org/1999/xlink" width="160" zoomAndPan="magnify" viewBox="0 0 120 67.499998" height="90" preserveAspectRatio="xMidYMid meet" version="1.0"><defs><g/><clipPath id="0f925ed970"><path d="M 5.265625 11.496094 L 113.21875 11.496094 L 113.21875 49 L 5.265625 49 Z M 5.265625 11.496094 " clip-rule="nonzero"/></clipPath><clipPath id="f96063be76"><path d="M 87 33 L 113.21875 33 L 113.21875 55.417969 L 87 55.417969 Z M 87 33 " clip-rule="nonzero"/></clipPath><clipPath id="ecfa0ca515"><path d="M 10.867188 15.410156 L 39.160156 15.410156 L 39.160156 43.703125 L 10.867188 43.703125 Z M 10.867188 15.410156 " clip-rule="nonzero"/></clipPath></defs><g clip-path="url(#0f925ed970)"><path fill="#6b40d4" d="M 14.851562 11.496094 L 103.566406 11.496094 C 104.195312 11.496094 104.816406 11.554688 105.433594 11.675781 C 106.050781 11.800781 106.648438 11.980469 107.230469 12.21875 C 107.808594 12.457031 108.359375 12.75 108.882812 13.097656 C 109.40625 13.445312 109.886719 13.839844 110.332031 14.28125 C 110.777344 14.722656 111.171875 15.203125 111.523438 15.722656 C 111.871094 16.242188 112.164062 16.792969 112.40625 17.371094 C 112.648438 17.945312 112.828125 18.542969 112.949219 19.15625 C 113.074219 19.769531 113.132812 20.386719 113.132812 21.011719 L 113.132812 38.90625 C 113.132812 39.53125 113.074219 40.152344 112.949219 40.761719 C 112.828125 41.375 112.648438 41.972656 112.40625 42.546875 C 112.164062 43.125 111.871094 43.675781 111.523438 44.195312 C 111.171875 44.714844 110.777344 45.195312 110.332031 45.636719 C 109.886719 46.078125 109.40625 46.472656 108.882812 46.820312 C 108.359375 47.167969 107.808594 47.460938 107.230469 47.699219 C 106.648438 47.9375 106.050781 48.117188 105.433594 48.242188 C 104.816406 48.363281 104.195312 48.421875 103.566406 48.421875 L 14.851562 48.421875 C 14.222656 48.421875 13.601562 48.363281 12.984375 48.242188 C 12.371094 48.117188 11.769531 47.9375 11.191406 47.699219 C 10.609375 47.460938 10.058594 47.167969 9.535156 46.820312 C 9.015625 46.472656 8.53125 46.078125 8.085938 45.636719 C 7.644531 45.195312 7.246094 44.714844 6.898438 44.195312 C 6.546875 43.675781 6.253906 43.125 6.011719 42.546875 C 5.773438 41.972656 5.589844 41.375 5.46875 40.761719 C 5.347656 40.152344 5.285156 39.53125 5.285156 38.90625 L 5.285156 21.011719 C 5.285156 20.386719 5.347656 19.769531 5.46875 19.15625 C 5.589844 18.542969 5.773438 17.945312 6.011719 17.371094 C 6.253906 16.792969 6.546875 16.242188 6.898438 15.722656 C 7.246094 15.203125 7.644531 14.722656 8.085938 14.28125 C 8.53125 13.839844 9.015625 13.445312 9.535156 13.097656 C 10.058594 12.75 10.609375 12.457031 11.191406 12.21875 C 11.769531 11.980469 12.371094 11.800781 12.984375 11.675781 C 13.601562 11.554688 14.222656 11.496094 14.851562 11.496094 Z M 14.851562 11.496094 " fill-opacity="1" fill-rule="nonzero"/></g><g clip-path="url(#f96063be76)"><path fill="#6b40d4" d="M 87.570312 34.351562 L 113.195312 55.417969 L 113.074219 33.132812 L 87.566406 33.265625 " fill-opacity="1" fill-rule="nonzero"/></g><g clip-path="url(#ecfa0ca515)"><path fill="#6b40d4" d="M 39.160156 17.878906 C 39.160156 16.515625 38.054688 15.410156 36.691406 15.410156 L 13.335938 15.410156 C 11.972656 15.410156 10.867188 16.515625 10.867188 17.878906 L 10.867188 41.234375 C 10.867188 42.597656 11.972656 43.703125 13.335938 43.703125 L 36.691406 43.703125 C 38.054688 43.703125 39.160156 42.597656 39.160156 41.234375 Z M 39.160156 17.878906 " fill-opacity="1" fill-rule="evenodd"/></g><path fill="#ffffff" d="M 16.664062 38.09375 L 17.492188 35.199219 C 16.308594 33.628906 15.609375 31.671875 15.609375 29.558594 C 15.609375 24.367188 19.824219 20.152344 25.011719 20.152344 C 30.203125 20.152344 34.417969 24.367188 34.417969 29.558594 C 34.417969 34.746094 30.203125 38.960938 25.011719 38.960938 C 22.992188 38.960938 21.234375 38.132812 19.582031 37.234375 Z M 15.824219 35.808594 L 14.339844 40.421875 L 19.007812 38.90625 C 20.738281 40.023438 22.800781 40.671875 25.011719 40.671875 C 31.148438 40.671875 36.128906 35.691406 36.128906 29.558594 C 36.128906 23.421875 31.148438 18.441406 25.011719 18.441406 C 18.878906 18.441406 13.898438 23.421875 13.898438 29.558594 C 13.898438 31.875 14.609375 34.027344 15.824219 35.808594 Z M 15.824219 35.808594 " fill-opacity="1" fill-rule="evenodd"/><path fill="#ffffff" d="M 20.882812 24.753906 C 19.910156 25.730469 19.722656 27.242188 20.425781 28.429688 C 20.9375 29.28125 21.742188 30.351562 23.007812 31.617188 C 24.246094 32.851562 25.289062 33.640625 26.121094 34.144531 C 27.308594 34.855469 28.824219 34.667969 29.800781 33.691406 C 29.863281 33.632812 29.925781 33.574219 29.984375 33.515625 C 30.378906 33.117188 30.378906 32.472656 29.984375 32.074219 C 29.703125 31.796875 29.386719 31.476562 29.109375 31.199219 C 28.917969 31.007812 28.65625 30.902344 28.386719 30.902344 C 28.117188 30.902344 27.859375 31.007812 27.667969 31.199219 C 27.53125 31.335938 27.429688 31.4375 27.429688 31.4375 C 27.429688 31.4375 26.214844 31.535156 24.847656 30.167969 C 23.476562 28.796875 23.132812 27.136719 23.132812 27.136719 C 23.132812 27.136719 23.234375 27.035156 23.367188 26.902344 C 23.558594 26.710938 23.667969 26.449219 23.667969 26.179688 C 23.667969 25.910156 23.558594 25.652344 23.367188 25.460938 C 23.089844 25.183594 22.773438 24.863281 22.492188 24.585938 C 22.097656 24.1875 21.453125 24.1875 21.054688 24.585938 C 21 24.640625 20.941406 24.699219 20.882812 24.753906 Z M 20.882812 24.753906 " fill-opacity="1" fill-rule="evenodd"/><g fill="#ffffff" fill-opacity="1"><g transform="translate(42.554128, 37.075362)"><g><path d="M 1.546875 0.046875 C 1.285156 0.046875 1.054688 -0.00390625 0.859375 -0.109375 C 0.660156 -0.222656 0.503906 -0.390625 0.390625 -0.609375 C 0.273438 -0.828125 0.21875 -1.097656 0.21875 -1.421875 C 0.21875 -1.734375 0.273438 -2 0.390625 -2.21875 C 0.503906 -2.4375 0.660156 -2.597656 0.859375 -2.703125 C 1.054688 -2.816406 1.285156 -2.875 1.546875 -2.875 C 1.816406 -2.875 2.046875 -2.816406 2.234375 -2.703125 C 2.429688 -2.597656 2.570312 -2.441406 2.65625 -2.234375 L 2.234375 -1.984375 L 2.1875 -1.984375 C 2.132812 -2.128906 2.054688 -2.234375 1.953125 -2.296875 C 1.847656 -2.359375 1.710938 -2.390625 1.546875 -2.390625 C 1.316406 -2.390625 1.132812 -2.3125 1 -2.15625 C 0.863281 -2 0.796875 -1.753906 0.796875 -1.421875 C 0.796875 -1.078125 0.863281 -0.828125 1 -0.671875 C 1.132812 -0.515625 1.316406 -0.4375 1.546875 -0.4375 C 1.910156 -0.4375 2.132812 -0.617188 2.21875 -0.984375 L 2.265625 -0.984375 L 2.6875 -0.765625 C 2.601562 -0.492188 2.46875 -0.289062 2.28125 -0.15625 C 2.09375 -0.0195312 1.847656 0.046875 1.546875 0.046875 Z M 1.546875 0.046875 "/></g></g><g transform="translate(45.334314, 37.075362)"><g><path d="M 0.890625 0.046875 C 0.691406 0.046875 0.539062 -0.00390625 0.4375 -0.109375 C 0.34375 -0.210938 0.296875 -0.375 0.296875 -0.59375 L 0.296875 -3 L 0.828125 -3 L 0.828125 -0.609375 C 0.828125 -0.484375 0.882812 -0.421875 1 -0.421875 C 1.03125 -0.421875 1.0625 -0.425781 1.09375 -0.4375 L 1.125 -0.421875 L 1.171875 -0.015625 C 1.140625 0.00390625 1.097656 0.0195312 1.046875 0.03125 C 1.003906 0.0390625 0.953125 0.046875 0.890625 0.046875 Z M 0.890625 0.046875 "/></g></g><g transform="translate(46.563489, 37.075362)"><g><path d="M 0.578125 -2.390625 C 0.484375 -2.390625 0.40625 -2.414062 0.34375 -2.46875 C 0.28125 -2.53125 0.25 -2.609375 0.25 -2.703125 C 0.25 -2.796875 0.28125 -2.867188 0.34375 -2.921875 C 0.40625 -2.984375 0.484375 -3.015625 0.578125 -3.015625 C 0.640625 -3.015625 0.695312 -3 0.75 -2.96875 C 0.800781 -2.945312 0.835938 -2.910156 0.859375 -2.859375 C 0.890625 -2.816406 0.90625 -2.765625 0.90625 -2.703125 C 0.90625 -2.648438 0.890625 -2.597656 0.859375 -2.546875 C 0.835938 -2.492188 0.800781 -2.453125 0.75 -2.421875 C 0.695312 -2.398438 0.640625 -2.390625 0.578125 -2.390625 Z M 0.3125 0 L 0.3125 -2.140625 L 0.84375 -2.140625 L 0.84375 0 Z M 0.3125 0 "/></g></g><g transform="translate(47.715114, 37.075362)"><g><path d="M 1.25 0.046875 C 1.039062 0.046875 0.851562 0.00390625 0.6875 -0.078125 C 0.53125 -0.171875 0.40625 -0.300781 0.3125 -0.46875 C 0.226562 -0.632812 0.1875 -0.832031 0.1875 -1.0625 C 0.1875 -1.300781 0.226562 -1.503906 0.3125 -1.671875 C 0.40625 -1.835938 0.53125 -1.960938 0.6875 -2.046875 C 0.851562 -2.128906 1.035156 -2.171875 1.234375 -2.171875 C 1.679688 -2.171875 1.972656 -2.007812 2.109375 -1.6875 L 1.734375 -1.421875 L 1.6875 -1.421875 C 1.644531 -1.523438 1.585938 -1.597656 1.515625 -1.640625 C 1.453125 -1.691406 1.359375 -1.71875 1.234375 -1.71875 C 1.078125 -1.71875 0.957031 -1.664062 0.875 -1.5625 C 0.789062 -1.457031 0.75 -1.289062 0.75 -1.0625 C 0.75 -0.84375 0.789062 -0.679688 0.875 -0.578125 C 0.957031 -0.472656 1.082031 -0.421875 1.25 -0.421875 C 1.363281 -0.421875 1.457031 -0.453125 1.53125 -0.515625 C 1.613281 -0.578125 1.675781 -0.664062 1.71875 -0.78125 L 1.75 -0.78125 L 2.140625 -0.578125 C 2.085938 -0.390625 1.984375 -0.238281 1.828125 -0.125 C 1.679688 -0.0078125 1.488281 0.046875 1.25 0.046875 Z M 1.25 0.046875 "/></g></g><g transform="translate(49.919487, 37.075362)"><g><path d="M 0.3125 0 L 0.3125 -3 L 0.84375 -3 L 0.84375 -1.328125 L 0.890625 -1.328125 L 1.515625 -2.140625 L 2.0625 -2.140625 L 2.0625 -2.09375 L 1.328125 -1.15625 L 2.140625 -0.046875 L 2.140625 0 L 1.578125 0 L 0.890625 -0.90625 L 0.84375 -0.90625 L 0.84375 0 Z M 0.3125 0 "/></g></g><g transform="translate(52.065697, 37.075362)"><g/></g><g transform="translate(53.00212, 37.075362)"><g><path d="M 2.265625 -2.828125 L 2.265625 -2.359375 L 1.453125 -2.359375 L 1.453125 0 L 0.890625 0 L 0.890625 -2.359375 L 0.078125 -2.359375 L 0.078125 -2.828125 Z M 2.265625 -2.828125 "/></g></g><g transform="translate(55.3519, 37.075362)"><g><path d="M 1.234375 0.046875 C 1.023438 0.046875 0.84375 0.00390625 0.6875 -0.078125 C 0.53125 -0.171875 0.40625 -0.300781 0.3125 -0.46875 C 0.226562 -0.632812 0.1875 -0.832031 0.1875 -1.0625 C 0.1875 -1.300781 0.226562 -1.503906 0.3125 -1.671875 C 0.40625 -1.835938 0.53125 -1.960938 0.6875 -2.046875 C 0.84375 -2.128906 1.023438 -2.171875 1.234375 -2.171875 C 1.453125 -2.171875 1.640625 -2.128906 1.796875 -2.046875 C 1.953125 -1.960938 2.070312 -1.835938 2.15625 -1.671875 C 2.25 -1.503906 2.296875 -1.300781 2.296875 -1.0625 C 2.296875 -0.832031 2.25 -0.632812 2.15625 -0.46875 C 2.070312 -0.300781 1.953125 -0.171875 1.796875 -0.078125 C 1.640625 0.00390625 1.453125 0.046875 1.234375 0.046875 Z M 1.234375 -0.421875 C 1.566406 -0.421875 1.734375 -0.632812 1.734375 -1.0625 C 1.734375 -1.289062 1.691406 -1.457031 1.609375 -1.5625 C 1.523438 -1.664062 1.398438 -1.71875 1.234375 -1.71875 C 0.910156 -1.71875 0.75 -1.5 0.75 -1.0625 C 0.75 -0.632812 0.910156 -0.421875 1.234375 -0.421875 Z M 1.234375 -0.421875 "/></g></g><g transform="translate(57.837394, 37.075362)"><g/></g><g transform="translate(58.773816, 37.075362)"><g><path d="M 1.546875 0.046875 C 1.285156 0.046875 1.054688 -0.00390625 0.859375 -0.109375 C 0.660156 -0.222656 0.503906 -0.390625 0.390625 -0.609375 C 0.273438 -0.828125 0.21875 -1.097656 0.21875 -1.421875 C 0.21875 -1.734375 0.273438 -2 0.390625 -2.21875 C 0.503906 -2.4375 0.660156 -2.597656 0.859375 -2.703125 C 1.054688 -2.816406 1.285156 -2.875 1.546875 -2.875 C 1.816406 -2.875 2.046875 -2.816406 2.234375 -2.703125 C 2.429688 -2.597656 2.570312 -2.441406 2.65625 -2.234375 L 2.234375 -1.984375 L 2.1875 -1.984375 C 2.132812 -2.128906 2.054688 -2.234375 1.953125 -2.296875 C 1.847656 -2.359375 1.710938 -2.390625 1.546875 -2.390625 C 1.316406 -2.390625 1.132812 -2.3125 1 -2.15625 C 0.863281 -2 0.796875 -1.753906 0.796875 -1.421875 C 0.796875 -1.078125 0.863281 -0.828125 1 -0.671875 C 1.132812 -0.515625 1.316406 -0.4375 1.546875 -0.4375 C 1.910156 -0.4375 2.132812 -0.617188 2.21875 -0.984375 L 2.265625 -0.984375 L 2.6875 -0.765625 C 2.601562 -0.492188 2.46875 -0.289062 2.28125 -0.15625 C 2.09375 -0.0195312 1.847656 0.046875 1.546875 0.046875 Z M 1.546875 0.046875 "/></g></g><g transform="translate(61.554001, 37.075362)"><g><path d="M 0.3125 0 L 0.3125 -3 L 0.84375 -3 L 0.84375 -1.859375 L 0.890625 -1.84375 C 0.960938 -1.945312 1.046875 -2.023438 1.140625 -2.078125 C 1.242188 -2.140625 1.367188 -2.171875 1.515625 -2.171875 C 1.992188 -2.171875 2.234375 -1.90625 2.234375 -1.375 L 2.234375 0 L 1.6875 0 L 1.6875 -1.3125 C 1.6875 -1.457031 1.65625 -1.5625 1.59375 -1.625 C 1.539062 -1.6875 1.453125 -1.71875 1.328125 -1.71875 C 1.179688 -1.71875 1.0625 -1.664062 0.96875 -1.5625 C 0.882812 -1.46875 0.84375 -1.316406 0.84375 -1.109375 L 0.84375 0 Z M 0.3125 0 "/></g></g><g transform="translate(64.058883, 37.075362)"><g><path d="M 0.828125 0.046875 C 0.691406 0.046875 0.570312 0.0195312 0.46875 -0.03125 C 0.375 -0.0820312 0.296875 -0.15625 0.234375 -0.25 C 0.179688 -0.351562 0.15625 -0.472656 0.15625 -0.609375 C 0.15625 -0.734375 0.179688 -0.835938 0.234375 -0.921875 C 0.296875 -1.015625 0.382812 -1.085938 0.5 -1.140625 C 0.613281 -1.191406 0.757812 -1.234375 0.9375 -1.265625 C 1.070312 -1.285156 1.171875 -1.304688 1.234375 -1.328125 C 1.296875 -1.359375 1.335938 -1.390625 1.359375 -1.421875 C 1.390625 -1.453125 1.40625 -1.488281 1.40625 -1.53125 C 1.40625 -1.601562 1.378906 -1.65625 1.328125 -1.6875 C 1.285156 -1.726562 1.207031 -1.75 1.09375 -1.75 C 0.976562 -1.75 0.863281 -1.722656 0.75 -1.671875 C 0.644531 -1.617188 0.550781 -1.546875 0.46875 -1.453125 L 0.4375 -1.453125 L 0.21875 -1.796875 C 0.320312 -1.921875 0.453125 -2.015625 0.609375 -2.078125 C 0.765625 -2.140625 0.9375 -2.171875 1.125 -2.171875 C 1.40625 -2.171875 1.609375 -2.109375 1.734375 -1.984375 C 1.859375 -1.867188 1.921875 -1.703125 1.921875 -1.484375 L 1.921875 -0.5625 C 1.921875 -0.46875 1.960938 -0.421875 2.046875 -0.421875 C 2.078125 -0.421875 2.109375 -0.425781 2.140625 -0.4375 L 2.171875 -0.421875 L 2.21875 -0.046875 C 2.1875 -0.0234375 2.140625 -0.0078125 2.078125 0 C 2.023438 0.0078125 1.96875 0.015625 1.90625 0.015625 C 1.78125 0.015625 1.679688 -0.00390625 1.609375 -0.046875 C 1.535156 -0.0976562 1.484375 -0.175781 1.453125 -0.28125 L 1.421875 -0.296875 C 1.316406 -0.0664062 1.117188 0.046875 0.828125 0.046875 Z M 1 -0.359375 C 1.125 -0.359375 1.222656 -0.398438 1.296875 -0.484375 C 1.367188 -0.566406 1.40625 -0.679688 1.40625 -0.828125 L 1.40625 -1.046875 L 1.375 -1.0625 C 1.34375 -1.03125 1.300781 -1.003906 1.25 -0.984375 C 1.195312 -0.972656 1.117188 -0.957031 1.015625 -0.9375 C 0.898438 -0.914062 0.816406 -0.878906 0.765625 -0.828125 C 0.722656 -0.785156 0.703125 -0.722656 0.703125 -0.640625 C 0.703125 -0.546875 0.726562 -0.472656 0.78125 -0.421875 C 0.832031 -0.378906 0.90625 -0.359375 1 -0.359375 Z M 1 -0.359375 "/></g></g><g transform="translate(66.313664, 37.075362)"><g><path d="M 1.46875 -0.515625 L 1.609375 -0.109375 C 1.554688 -0.0664062 1.484375 -0.03125 1.390625 0 C 1.304688 0.03125 1.207031 0.046875 1.09375 0.046875 C 0.863281 0.046875 0.6875 -0.015625 0.5625 -0.140625 C 0.445312 -0.273438 0.390625 -0.460938 0.390625 -0.703125 L 0.390625 -1.71875 L 0.0625 -1.71875 L 0.0625 -2.140625 L 0.390625 -2.140625 L 0.390625 -2.5625 L 0.921875 -2.640625 L 0.921875 -2.140625 L 1.53125 -2.140625 L 1.53125 -1.71875 L 0.921875 -1.71875 L 0.921875 -0.734375 C 0.921875 -0.628906 0.941406 -0.550781 0.984375 -0.5 C 1.035156 -0.457031 1.101562 -0.4375 1.1875 -0.4375 C 1.28125 -0.4375 1.363281 -0.460938 1.4375 -0.515625 Z M 1.46875 -0.515625 "/></g></g></g><g fill="#ffffff" fill-opacity="1"><g transform="translate(41.102025, 30.871316)"><g><path d="M 3.71875 0 L 2 0 L 0.21875 -7.796875 L 1.75 -7.796875 L 2.921875 -2.3125 L 3.0625 -2.3125 L 4.453125 -7.796875 L 5.78125 -7.796875 L 7.203125 -2.3125 L 7.328125 -2.3125 L 8.515625 -7.796875 L 10 -7.796875 L 8.21875 0 L 6.484375 0 L 5.125 -5.03125 L 5.015625 -5.03125 Z M 3.71875 0 "/></g></g></g><g fill="#ffffff" fill-opacity="1"><g transform="translate(51.299459, 30.871316)"><g><path d="M 0.84375 0 L 0.84375 -8.25 L 2.328125 -8.25 L 2.328125 -5.109375 L 2.4375 -5.09375 C 2.632812 -5.382812 2.875 -5.609375 3.15625 -5.765625 C 3.4375 -5.921875 3.78125 -6 4.1875 -6 C 5.488281 -6 6.140625 -5.257812 6.140625 -3.78125 L 6.140625 0 L 4.65625 0 L 4.65625 -3.59375 C 4.65625 -4 4.570312 -4.289062 4.40625 -4.46875 C 4.25 -4.65625 4.003906 -4.75 3.671875 -4.75 C 3.253906 -4.75 2.925781 -4.609375 2.6875 -4.328125 C 2.445312 -4.054688 2.328125 -3.628906 2.328125 -3.046875 L 2.328125 0 Z M 0.84375 0 "/></g></g></g><g fill="#ffffff" fill-opacity="1"><g transform="translate(58.182994, 30.871316)"><g><path d="M 2.296875 0.109375 C 1.921875 0.109375 1.59375 0.0390625 1.3125 -0.09375 C 1.03125 -0.226562 0.816406 -0.429688 0.671875 -0.703125 C 0.523438 -0.972656 0.453125 -1.296875 0.453125 -1.671875 C 0.453125 -2.023438 0.523438 -2.316406 0.671875 -2.546875 C 0.816406 -2.785156 1.046875 -2.976562 1.359375 -3.125 C 1.671875 -3.28125 2.082031 -3.398438 2.59375 -3.484375 C 2.945312 -3.535156 3.210938 -3.59375 3.390625 -3.65625 C 3.578125 -3.726562 3.703125 -3.804688 3.765625 -3.890625 C 3.828125 -3.984375 3.859375 -4.09375 3.859375 -4.21875 C 3.859375 -4.40625 3.789062 -4.550781 3.65625 -4.65625 C 3.53125 -4.757812 3.3125 -4.8125 3 -4.8125 C 2.675781 -4.8125 2.363281 -4.738281 2.0625 -4.59375 C 1.769531 -4.445312 1.519531 -4.253906 1.3125 -4.015625 L 1.203125 -4.015625 L 0.578125 -4.9375 C 0.878906 -5.269531 1.242188 -5.53125 1.671875 -5.71875 C 2.097656 -5.90625 2.566406 -6 3.078125 -6 C 3.859375 -6 4.421875 -5.832031 4.765625 -5.5 C 5.117188 -5.164062 5.296875 -4.695312 5.296875 -4.09375 L 5.296875 -1.53125 C 5.296875 -1.269531 5.410156 -1.140625 5.640625 -1.140625 C 5.734375 -1.140625 5.820312 -1.15625 5.90625 -1.1875 L 5.984375 -1.171875 L 6.078125 -0.140625 C 6.003906 -0.0859375 5.894531 -0.0390625 5.75 0 C 5.601562 0.03125 5.441406 0.046875 5.265625 0.046875 C 4.910156 0.046875 4.632812 -0.0195312 4.4375 -0.15625 C 4.238281 -0.289062 4.097656 -0.503906 4.015625 -0.796875 L 3.90625 -0.8125 C 3.613281 -0.195312 3.078125 0.109375 2.296875 0.109375 Z M 2.765625 -0.984375 C 3.109375 -0.984375 3.378906 -1.097656 3.578125 -1.328125 C 3.785156 -1.566406 3.890625 -1.890625 3.890625 -2.296875 L 3.890625 -2.890625 L 3.78125 -2.90625 C 3.695312 -2.84375 3.582031 -2.785156 3.4375 -2.734375 C 3.289062 -2.679688 3.082031 -2.632812 2.8125 -2.59375 C 2.488281 -2.539062 2.257812 -2.445312 2.125 -2.3125 C 1.988281 -2.1875 1.921875 -2.003906 1.921875 -1.765625 C 1.921875 -1.515625 1.992188 -1.320312 2.140625 -1.1875 C 2.285156 -1.050781 2.492188 -0.984375 2.765625 -0.984375 Z M 2.765625 -0.984375 "/></g></g></g><g fill="#ffffff" fill-opacity="1"><g transform="translate(64.379241, 30.871316)"><g><path d="M 4.0625 -1.40625 L 4.4375 -0.3125 C 4.28125 -0.175781 4.082031 -0.0703125 3.84375 0 C 3.601562 0.0703125 3.328125 0.109375 3.015625 0.109375 C 2.378906 0.109375 1.894531 -0.0625 1.5625 -0.40625 C 1.238281 -0.75 1.078125 -1.253906 1.078125 -1.921875 L 1.078125 -4.71875 L 0.171875 -4.71875 L 0.171875 -5.890625 L 1.078125 -5.890625 L 1.078125 -7.03125 L 2.546875 -7.28125 L 2.546875 -5.890625 L 4.21875 -5.890625 L 4.21875 -4.71875 L 2.546875 -4.71875 L 2.546875 -2.03125 C 2.546875 -1.738281 2.601562 -1.523438 2.71875 -1.390625 C 2.84375 -1.253906 3.023438 -1.1875 3.265625 -1.1875 C 3.523438 -1.1875 3.753906 -1.257812 3.953125 -1.40625 Z M 4.0625 -1.40625 "/></g></g></g><g fill="#ffffff" fill-opacity="1"><g transform="translate(68.945177, 30.871316)"><g><path d="M 2.75 0.109375 C 2.351562 0.109375 1.984375 0.0625 1.640625 -0.03125 C 1.304688 -0.125 1.019531 -0.253906 0.78125 -0.421875 C 0.550781 -0.585938 0.378906 -0.773438 0.265625 -0.984375 L 1.09375 -1.875 L 1.203125 -1.875 C 1.398438 -1.613281 1.628906 -1.414062 1.890625 -1.28125 C 2.160156 -1.144531 2.453125 -1.078125 2.765625 -1.078125 C 3.046875 -1.078125 3.257812 -1.128906 3.40625 -1.234375 C 3.550781 -1.335938 3.625 -1.488281 3.625 -1.6875 C 3.625 -1.832031 3.570312 -1.953125 3.46875 -2.046875 C 3.363281 -2.148438 3.195312 -2.234375 2.96875 -2.296875 L 2.1875 -2.484375 C 1.601562 -2.617188 1.175781 -2.828125 0.90625 -3.109375 C 0.632812 -3.398438 0.5 -3.765625 0.5 -4.203125 C 0.5 -4.566406 0.59375 -4.882812 0.78125 -5.15625 C 0.96875 -5.425781 1.226562 -5.632812 1.5625 -5.78125 C 1.90625 -5.925781 2.304688 -6 2.765625 -6 C 3.296875 -6 3.734375 -5.921875 4.078125 -5.765625 C 4.429688 -5.609375 4.703125 -5.40625 4.890625 -5.15625 L 4.109375 -4.296875 L 4 -4.296875 C 3.832031 -4.484375 3.644531 -4.617188 3.4375 -4.703125 C 3.238281 -4.785156 3.015625 -4.828125 2.765625 -4.828125 C 2.179688 -4.828125 1.890625 -4.644531 1.890625 -4.28125 C 1.890625 -4.132812 1.941406 -4.007812 2.046875 -3.90625 C 2.160156 -3.8125 2.351562 -3.738281 2.625 -3.6875 L 3.34375 -3.515625 C 3.945312 -3.390625 4.382812 -3.1875 4.65625 -2.90625 C 4.9375 -2.625 5.078125 -2.242188 5.078125 -1.765625 C 5.078125 -1.390625 4.984375 -1.0625 4.796875 -0.78125 C 4.609375 -0.5 4.335938 -0.28125 3.984375 -0.125 C 3.640625 0.03125 3.226562 0.109375 2.75 0.109375 Z M 2.75 0.109375 "/></g></g></g><g fill="#ffffff" fill-opacity="1"><g transform="translate(74.363564, 30.871316)"><g><path d="M 2.296875 0.109375 C 1.921875 0.109375 1.59375 0.0390625 1.3125 -0.09375 C 1.03125 -0.226562 0.816406 -0.429688 0.671875 -0.703125 C 0.523438 -0.972656 0.453125 -1.296875 0.453125 -1.671875 C 0.453125 -2.023438 0.523438 -2.316406 0.671875 -2.546875 C 0.816406 -2.785156 1.046875 -2.976562 1.359375 -3.125 C 1.671875 -3.28125 2.082031 -3.398438 2.59375 -3.484375 C 2.945312 -3.535156 3.210938 -3.59375 3.390625 -3.65625 C 3.578125 -3.726562 3.703125 -3.804688 3.765625 -3.890625 C 3.828125 -3.984375 3.859375 -4.09375 3.859375 -4.21875 C 3.859375 -4.40625 3.789062 -4.550781 3.65625 -4.65625 C 3.53125 -4.757812 3.3125 -4.8125 3 -4.8125 C 2.675781 -4.8125 2.363281 -4.738281 2.0625 -4.59375 C 1.769531 -4.445312 1.519531 -4.253906 1.3125 -4.015625 L 1.203125 -4.015625 L 0.578125 -4.9375 C 0.878906 -5.269531 1.242188 -5.53125 1.671875 -5.71875 C 2.097656 -5.90625 2.566406 -6 3.078125 -6 C 3.859375 -6 4.421875 -5.832031 4.765625 -5.5 C 5.117188 -5.164062 5.296875 -4.695312 5.296875 -4.09375 L 5.296875 -1.53125 C 5.296875 -1.269531 5.410156 -1.140625 5.640625 -1.140625 C 5.734375 -1.140625 5.820312 -1.15625 5.90625 -1.1875 L 5.984375 -1.171875 L 6.078125 -0.140625 C 6.003906 -0.0859375 5.894531 -0.0390625 5.75 0 C 5.601562 0.03125 5.441406 0.046875 5.265625 0.046875 C 4.910156 0.046875 4.632812 -0.0195312 4.4375 -0.15625 C 4.238281 -0.289062 4.097656 -0.503906 4.015625 -0.796875 L 3.90625 -0.8125 C 3.613281 -0.195312 3.078125 0.109375 2.296875 0.109375 Z M 2.765625 -0.984375 C 3.109375 -0.984375 3.378906 -1.097656 3.578125 -1.328125 C 3.785156 -1.566406 3.890625 -1.890625 3.890625 -2.296875 L 3.890625 -2.890625 L 3.78125 -2.90625 C 3.695312 -2.84375 3.582031 -2.785156 3.4375 -2.734375 C 3.289062 -2.679688 3.082031 -2.632812 2.8125 -2.59375 C 2.488281 -2.539062 2.257812 -2.445312 2.125 -2.3125 C 1.988281 -2.1875 1.921875 -2.003906 1.921875 -1.765625 C 1.921875 -1.515625 1.992188 -1.320312 2.140625 -1.1875 C 2.285156 -1.050781 2.492188 -0.984375 2.765625 -0.984375 Z M 2.765625 -0.984375 "/></g></g></g><g fill="#ffffff" fill-opacity="1"><g transform="translate(80.559811, 30.871316)"><g><path d="M 0.84375 2.390625 L 0.84375 -5.875 L 2.328125 -5.875 L 2.328125 -5.109375 L 2.4375 -5.09375 C 2.613281 -5.394531 2.847656 -5.617188 3.140625 -5.765625 C 3.429688 -5.921875 3.769531 -6 4.15625 -6 C 4.632812 -6 5.050781 -5.882812 5.40625 -5.65625 C 5.757812 -5.4375 6.03125 -5.097656 6.21875 -4.640625 C 6.414062 -4.179688 6.515625 -3.613281 6.515625 -2.9375 C 6.515625 -2.269531 6.410156 -1.707031 6.203125 -1.25 C 5.992188 -0.789062 5.703125 -0.445312 5.328125 -0.21875 C 4.960938 0 4.539062 0.109375 4.0625 0.109375 C 3.695312 0.109375 3.378906 0.0507812 3.109375 -0.0625 C 2.847656 -0.1875 2.625 -0.378906 2.4375 -0.640625 L 2.328125 -0.625 L 2.328125 2.390625 Z M 3.65625 -1.140625 C 4.09375 -1.140625 4.425781 -1.28125 4.65625 -1.5625 C 4.882812 -1.851562 5 -2.3125 5 -2.9375 C 5 -3.5625 4.882812 -4.015625 4.65625 -4.296875 C 4.425781 -4.585938 4.09375 -4.734375 3.65625 -4.734375 C 3.238281 -4.734375 2.910156 -4.582031 2.671875 -4.28125 C 2.429688 -3.988281 2.3125 -3.539062 2.3125 -2.9375 C 2.3125 -2.332031 2.429688 -1.878906 2.671875 -1.578125 C 2.910156 -1.285156 3.238281 -1.140625 3.65625 -1.140625 Z M 3.65625 -1.140625 "/></g></g></g><g fill="#ffffff" fill-opacity="1"><g transform="translate(87.597852, 30.871316)"><g><path d="M 0.84375 2.390625 L 0.84375 -5.875 L 2.328125 -5.875 L 2.328125 -5.109375 L 2.4375 -5.09375 C 2.613281 -5.394531 2.847656 -5.617188 3.140625 -5.765625 C 3.429688 -5.921875 3.769531 -6 4.15625 -6 C 4.632812 -6 5.050781 -5.882812 5.40625 -5.65625 C 5.757812 -5.4375 6.03125 -5.097656 6.21875 -4.640625 C 6.414062 -4.179688 6.515625 -3.613281 6.515625 -2.9375 C 6.515625 -2.269531 6.410156 -1.707031 6.203125 -1.25 C 5.992188 -0.789062 5.703125 -0.445312 5.328125 -0.21875 C 4.960938 0 4.539062 0.109375 4.0625 0.109375 C 3.695312 0.109375 3.378906 0.0507812 3.109375 -0.0625 C 2.847656 -0.1875 2.625 -0.378906 2.4375 -0.640625 L 2.328125 -0.625 L 2.328125 2.390625 Z M 3.65625 -1.140625 C 4.09375 -1.140625 4.425781 -1.28125 4.65625 -1.5625 C 4.882812 -1.851562 5 -2.3125 5 -2.9375 C 5 -3.5625 4.882812 -4.015625 4.65625 -4.296875 C 4.425781 -4.585938 4.09375 -4.734375 3.65625 -4.734375 C 3.238281 -4.734375 2.910156 -4.582031 2.671875 -4.28125 C 2.429688 -3.988281 2.3125 -3.539062 2.3125 -2.9375 C 2.3125 -2.332031 2.429688 -1.878906 2.671875 -1.578125 C 2.910156 -1.285156 3.238281 -1.140625 3.65625 -1.140625 Z M 3.65625 -1.140625 "/></g></g></g></svg>